<?xml version="1.0" encoding="utf-8"?>
<!-- Generator: Adobe Illustrator 28.2.0, SVG Export Plug-In . SVG Version: 6.00 Build 0)  -->
<svg version="1.1" id="Layer_1" xmlns="http://www.w3.org/2000/svg" xmlns:xlink="http://www.w3.org/1999/xlink" x="0px" y="0px"
	 viewBox="0 0 1920 728.4" style="enable-background:new 0 0 1920 728.4;" xml:space="preserve">
<style type="text/css">
	.st0{fill-rule:evenodd;clip-rule:evenodd;fill:#ECB159;}
</style>
<polygon class="st0" points="1920,728.4 0,728.4 0,4.7 37.6,39.7 73.8,6 109.9,39.7 146.1,6 182.3,39.7 218.5,6 254.7,39.7 290.9,6 
	327.1,39.7 363.3,6 399.5,39.7 435.6,6 471.8,39.7 508,6 544.2,39.7 580.4,6 616.6,39.7 652.8,6 688.9,39.7 725.1,6 761.3,39.7 
	797.5,6 833.7,39.7 869.9,6 906,39.7 942.2,6 978.4,39.7 1014.6,6 1050.8,39.7 1087,6 1123.2,39.7 1159.4,6 1195.6,39.7 1231.7,6 
	1267.9,39.7 1304.1,6 1340.3,39.7 1376.5,6 1412.7,39.7 1448.8,6 1485,39.7 1521.2,6 1557.4,39.7 1593.6,6 1629.8,39.7 1666,6 
	1702.2,39.7 1738.3,6 1774.5,39.7 1810.7,6 1846.9,39.7 1883.1,6 1920,39.7 "/>
</svg>
