<svg xmlns="http://www.w3.org/2000/svg" xmlns:xlink="http://www.w3.org/1999/xlink" viewBox="0,0,256,256" width="50px" height="50px"><g fill="#ffffff" fill-rule="nonzero" stroke="none" stroke-width="1" stroke-linecap="butt" stroke-linejoin="miter" stroke-miterlimit="10" stroke-dasharray="" stroke-dashoffset="0" font-family="none" font-weight="none" font-size="none" text-anchor="none" style="mix-blend-mode: normal"><g transform="scale(5.12,5.12)"><path d="M9,4.5c-2.481,0 -4.5,2.019 -4.5,4.5v32c0,2.481 2.019,4.5 4.5,4.5h32c2.481,0 4.5,-2.019 4.5,-4.5v-32c0,-2.481 -2.019,-4.5 -4.5,-4.5zM9,5.5h32c1.93,0 3.5,1.57 3.5,3.5v32c0,1.93 -1.57,3.5 -3.5,3.5h-32c-1.93,0 -3.5,-1.57 -3.5,-3.5v-32c0,-1.93 1.57,-3.5 3.5,-3.5zM36.22852,20.75781l-1.83984,0.6875l-0.24805,1.03906l-0.64844,0.0332l-0.16797,1.43164h0.59961l-0.3125,2.20703c-0.192,1.368 0.05763,2.01758 1.26563,2.01758c0.712,0 1.3263,-0.25759 1.6543,-0.43359l0.2168,-1.31836c-0.24,0.12 -0.6323,0.2793 -0.9043,0.2793c-0.36,0 -0.40013,-0.18489 -0.32812,-0.71289l0.28125,-2.03906h1.23047c0.04,-0.304 0.19242,-1.28884 0.23242,-1.46484h-1.26367zM30.69922,22.21484c-0.16861,0.00261 -0.34434,0.01606 -0.52734,0.03906c-0.768,0.096 -1.44075,0.32686 -1.96875,0.63086l0.38477,1.15234c0.392,-0.216 0.90364,-0.40866 1.43164,-0.47266c0.784,-0.096 1.10434,0.15273 1.15234,0.55273c0.016,0.16 0.00623,0.29583 -0.00977,0.42383l-0.02344,0.08008c-0.48,-0.096 -0.99161,-0.12864 -1.59961,-0.05664c-0.76,0.096 -1.37577,0.40086 -1.75977,0.88086c-0.28,0.368 -0.44813,0.97572 -0.32812,1.51172c0.184,0.856 0.80795,1.23133 1.75195,1.11133c0.664,-0.08 1.19136,-0.39878 1.56836,-0.92578c-0.016,0.184 -0.02288,0.32727 -0.04687,0.44727c-0.032,0.176 -0.06547,0.31983 -0.10547,0.42383h1.81641c-0.008,-0.256 -0.008,-0.43116 0,-0.53516c0.048,-0.673 0.16933,-1.67395 0.36133,-3.00195c0.04,-0.272 0.032,-0.57528 0,-0.86328c-0.112,-0.938 -0.91742,-1.4167 -2.09766,-1.39844zM40.26172,22.31641c-1.745,0 -3.08203,1.55983 -3.08203,3.42383c0,1.4 0.80095,2.47266 2.37695,2.47266c1.753,0 3.08008,-1.56159 3.08008,-3.43359c0,-1.392 -0.783,-2.46289 -2.375,-2.46289zM23.04297,22.37109c-0.784,0 -1.64061,0.68059 -2.22461,1.80859c0.152,-0.736 0.12027,-1.57595 0.07227,-1.75195c-0.608,0.104 -1.13686,0.15978 -1.88086,0.17578c0.024,0.512 -0.00752,1.18441 -0.10352,1.81641l-0.24805,1.67188c-0.096,0.656 -0.2005,1.41648 -0.3125,1.89648h1.97656c0.008,-0.288 0.08676,-0.74434 0.13477,-1.15234l0.16992,-1.15234c0.136,-0.744 0.73541,-1.63086 1.19141,-1.63086c0.264,0 0.25559,0.25437 0.18359,0.73438l-0.19141,1.29688c-0.096,0.656 -0.2005,1.41648 -0.3125,1.89648h2c0.008,-0.288 0.07291,-0.74434 0.12891,-1.15234l0.16797,-1.15234c0.136,-0.744 0.73541,-1.63086 1.19141,-1.63086c0.264,0 0.25484,0.24622 0.21484,0.57422l-0.47852,3.3457h1.82422l0.6543,-3.78516c0.136,-0.952 0.06577,-1.80859 -0.99023,-1.80859c-0.768,0 -1.59373,0.64851 -2.17773,1.72852c0.128,-0.896 0.05777,-1.72852 -0.99023,-1.72852zM15.91211,22.38867c-1.721,0 -3.04101,1.53695 -3.04101,3.37695c0,1.384 0.79956,2.43945 2.35156,2.43945c1.737,0 3.04102,-1.54458 3.04102,-3.39258c0,-1.368 -0.77556,-2.42383 -2.35156,-2.42383zM12.90234,22.51563c-0.64,0.032 -1.20666,0.04883 -2.22266,0.04883c-1.088,0 -1.42544,-0.0172 -2.27344,-0.0332c-0.072,0.568 -0.15186,1.13644 -0.25586,1.64844c0.48,-0.016 0.90445,-0.02344 2.06445,-0.02344l-2.64844,2.86523l-0.02344,1.02344c0.648,-0.048 1.45481,-0.05664 2.38281,-0.05664c0.832,0 1.66341,0.00864 2.19141,0.05664c0.096,-0.672 0.1925,-1.12006 0.3125,-1.66406c-0.4,0.024 -1.10303,0.03125 -2.20703,0.03125l2.64844,-2.88086zM15.71289,23.86914c0.368,0 0.5918,0.33544 0.5918,1.02344c0,1.008 -0.40011,1.83203 -0.91211,1.83203c-0.384,0 -0.60937,-0.34344 -0.60937,-1.02344c0,-1.017 0.41769,-1.83303 0.92969,-1.83203zM40.02148,23.86914c0.368,0 0.5918,0.33544 0.5918,1.02344c0,1.008 -0.40011,1.83203 -0.91211,1.83203c-0.384,0 -0.60742,-0.34344 -0.60742,-1.02344c0,-1.017 0.41573,-1.83303 0.92773,-1.83203zM30.52539,25.42773c0.19,0.014 0.36576,0.04222 0.50977,0.07422l-0.01562,0.17578c-0.112,0.64 -0.56823,1.28719 -1.24023,1.36719c-0.456,0.056 -0.84867,-0.21636 -0.88867,-0.56836c-0.024,-0.232 0.03997,-0.43161 0.16797,-0.59961c0.168,-0.232 0.48905,-0.39145 0.87305,-0.43945c0.2,-0.024 0.40375,-0.02377 0.59375,-0.00977z"></path></g></g></svg>